# xmcd
#
# Track frame offsets: 
#        150
#        25445
#        46675
#        77652
#        96330
#        114305
#        135757
#        159440
#        181540
#        201797
#        230352
#        250647
#        269840
#
# Disc length: 3833 seconds
#
# Revision: 0
# Processed by: cddbd v1.5.2PL0 Copyright (c) Steve Scherf et al.
# Submitted via: ExactAudioCopy v0.95b3
#
DISCID=9a0ef70d
DTITLE=Smokey Wilson - Push
DYEAR=1999
DGENRE=Blues
TTITLE0=Deuce and Quarter (Low Ride)
TTITLE1=You Don't Love Me Yes I Know
TTITLE2=Disco Woman
TTITLE3=Baby Please Don't Go
TTITLE4=Happy Home
TTITLE5=I'll Be Holding On To You
TTITLE6=I'm Leaving Now
TTITLE7=Goin' Away Baby Round Like An Apple
TTITLE8=I've Got The Key To Your Heart
TTITLE9=Don't Make Me Pay For Your Mistakes
TTITLE10=High Pime
TTITLE11=Push
TTITLE12=Jungle Woman
EXTD=PCD 5491 - Chinese or Japanese pressing\nP-Vine Records\n\nPrevio
EXTD=usly unreleased album recorded 1977/8 Los Angeles\n\nWith *Probab
EXTD=ly*\n\nPat Devuono\nRick Lotempio\nJeff Eyrich\nDave Ellis\n*and 
EXTD=others*\n\n\n
EXTT0=
EXTT1=
EXTT2=
EXTT3=
EXTT4=
EXTT5=
EXTT6=
EXTT7=
EXTT8=
EXTT9=
EXTT10=
EXTT11=
EXTT12=
PLAYORDER=
